<mxfile host="Electron" modified="2024-05-12T20:30:44.572Z" agent="Mozilla/5.0 (Windows NT 10.0; Win64; x64) AppleWebKit/537.36 (KHTML, like Gecko) draw.io/24.2.5 Chrome/120.0.6099.109 Electron/28.1.0 Safari/537.36" etag="msf4SVKaXe9MxTqbJ723" version="24.2.5" type="device">
  <diagram name="Pagina-1" id="QI2gKdlKlqPeXvp3Vsb9">
    <mxGraphModel dx="592" dy="346" grid="1" gridSize="10" guides="1" tooltips="1" connect="1" arrows="1" fold="1" page="1" pageScale="1" pageWidth="827" pageHeight="1169" math="0" shadow="0">
      <root>
        <mxCell id="0" />
        <mxCell id="1" parent="0" />
        <mxCell id="j8HFBvuaQ3PIoH76wqup-3" value="Indossa" style="shape=rhombus;perimeter=rhombusPerimeter;whiteSpace=wrap;html=1;align=center;" vertex="1" parent="1">
          <mxGeometry x="261.23" y="545.42" width="72.5" height="39.75" as="geometry" />
        </mxCell>
        <mxCell id="j8HFBvuaQ3PIoH76wqup-4" value="Utilizzo" style="shape=rhombus;perimeter=rhombusPerimeter;whiteSpace=wrap;html=1;align=center;" vertex="1" parent="1">
          <mxGeometry x="392.54" y="586.7099999999999" width="63.75" height="39.75" as="geometry" />
        </mxCell>
        <mxCell id="j8HFBvuaQ3PIoH76wqup-10" value="&lt;font style=&quot;font-size: 8px;&quot;&gt;(0,N)&lt;/font&gt;" style="text;html=1;align=center;verticalAlign=middle;whiteSpace=wrap;rounded=1;strokeColor=none;glass=0;" vertex="1" parent="1">
          <mxGeometry x="258.77" y="531.42" width="50" height="15" as="geometry" />
        </mxCell>
        <mxCell id="j8HFBvuaQ3PIoH76wqup-11" value="&lt;font style=&quot;font-size: 8px;&quot;&gt;(1,1)&lt;/font&gt;" style="text;html=1;align=center;verticalAlign=middle;whiteSpace=wrap;rounded=1;strokeColor=none;glass=0;" vertex="1" parent="1">
          <mxGeometry x="230" y="545.42" width="50" height="15" as="geometry" />
        </mxCell>
        <mxCell id="j8HFBvuaQ3PIoH76wqup-12" value="&lt;font style=&quot;font-size: 8px;&quot;&gt;(0,N)&lt;/font&gt;" style="text;html=1;align=center;verticalAlign=middle;whiteSpace=wrap;rounded=1;strokeColor=none;glass=0;" vertex="1" parent="1">
          <mxGeometry x="385.70000000000005" y="574.9599999999999" width="50" height="15" as="geometry" />
        </mxCell>
        <mxCell id="j8HFBvuaQ3PIoH76wqup-13" value="&lt;font style=&quot;font-size: 8px;&quot;&gt;(1,1&lt;/font&gt;&lt;span style=&quot;font-size: 8px; background-color: initial;&quot;&gt;)&lt;/span&gt;" style="text;html=1;align=center;verticalAlign=middle;whiteSpace=wrap;rounded=1;strokeColor=none;glass=0;" vertex="1" parent="1">
          <mxGeometry x="357.98" y="590.4599999999999" width="50" height="15" as="geometry" />
        </mxCell>
        <mxCell id="j8HFBvuaQ3PIoH76wqup-17" value="" style="endArrow=none;html=1;rounded=0;entryX=0.543;entryY=0.997;entryDx=0;entryDy=0;entryPerimeter=0;exitX=0.5;exitY=0;exitDx=0;exitDy=0;" edge="1" parent="1" source="j8HFBvuaQ3PIoH76wqup-3">
          <mxGeometry width="50" height="50" relative="1" as="geometry">
            <mxPoint x="297.54" y="540.29" as="sourcePoint" />
            <mxPoint x="297.58250000000004" y="478.98000000000013" as="targetPoint" />
          </mxGeometry>
        </mxCell>
        <mxCell id="j8HFBvuaQ3PIoH76wqup-49" style="edgeStyle=orthogonalEdgeStyle;rounded=0;orthogonalLoop=1;jettySize=auto;html=1;endArrow=oval;endFill=0;entryX=0.5;entryY=0;entryDx=0;entryDy=0;" edge="1" parent="1" target="j8HFBvuaQ3PIoH76wqup-62">
          <mxGeometry relative="1" as="geometry">
            <mxPoint x="277.6700000000001" y="487.4799999999999" as="targetPoint" />
            <Array as="points" />
            <mxPoint x="277.6700000000001" y="478.54999999999995" as="sourcePoint" />
          </mxGeometry>
        </mxCell>
        <mxCell id="j8HFBvuaQ3PIoH76wqup-50" value="&lt;font style=&quot;font-size: 9px;&quot;&gt;Materiale&lt;/font&gt;" style="text;html=1;align=center;verticalAlign=middle;whiteSpace=wrap;rounded=0;" vertex="1" parent="1">
          <mxGeometry x="308.7700000000001" y="485.6599999999999" width="35" height="15" as="geometry" />
        </mxCell>
        <mxCell id="j8HFBvuaQ3PIoH76wqup-51" value="&lt;font style=&quot;font-size: 9px;&quot;&gt;Descrizione&lt;/font&gt;" style="text;html=1;align=center;verticalAlign=middle;whiteSpace=wrap;rounded=0;" vertex="1" parent="1">
          <mxGeometry x="311.7300000000001" y="425.06999999999994" width="40" height="17" as="geometry" />
        </mxCell>
        <mxCell id="j8HFBvuaQ3PIoH76wqup-52" value="&lt;font style=&quot;font-size: 9px;&quot;&gt;Nome&lt;/font&gt;" style="text;html=1;align=center;verticalAlign=middle;whiteSpace=wrap;rounded=0;" vertex="1" parent="1">
          <mxGeometry x="257.7300000000001" y="425.06999999999994" width="40" height="17" as="geometry" />
        </mxCell>
        <mxCell id="j8HFBvuaQ3PIoH76wqup-53" style="edgeStyle=orthogonalEdgeStyle;rounded=0;orthogonalLoop=1;jettySize=auto;html=1;endArrow=oval;endFill=0;" edge="1" parent="1">
          <mxGeometry relative="1" as="geometry">
            <mxPoint x="277.52000000000004" y="467.31999999999994" as="sourcePoint" />
            <mxPoint x="277.52000000000004" y="443.56999999999994" as="targetPoint" />
            <Array as="points">
              <mxPoint x="277.52000000000004" y="467.31999999999994" />
            </Array>
          </mxGeometry>
        </mxCell>
        <mxCell id="j8HFBvuaQ3PIoH76wqup-54" value="&lt;font style=&quot;font-size: 8px;&quot;&gt;(1,1)&lt;/font&gt;" style="text;html=1;align=center;verticalAlign=middle;whiteSpace=wrap;rounded=1;strokeColor=none;glass=0;" vertex="1" parent="1">
          <mxGeometry x="300.56000000000006" y="394.8799999999999" width="22.5" height="6.75" as="geometry" />
        </mxCell>
        <mxCell id="j8HFBvuaQ3PIoH76wqup-55" value="&lt;font style=&quot;font-size: 9px;&quot;&gt;Stile&lt;/font&gt;" style="text;html=1;align=center;verticalAlign=middle;whiteSpace=wrap;rounded=0;" vertex="1" parent="1">
          <mxGeometry x="317.7300000000001" y="459.37" width="40" height="15" as="geometry" />
        </mxCell>
        <mxCell id="j8HFBvuaQ3PIoH76wqup-56" value="&lt;font style=&quot;font-size: 9px;&quot;&gt;Scopo&lt;/font&gt;" style="text;html=1;align=center;verticalAlign=middle;whiteSpace=wrap;rounded=0;" vertex="1" parent="1">
          <mxGeometry x="350.86000000000007" y="465.41999999999996" width="40" height="17" as="geometry" />
        </mxCell>
        <mxCell id="j8HFBvuaQ3PIoH76wqup-57" style="edgeStyle=orthogonalEdgeStyle;rounded=0;orthogonalLoop=1;jettySize=auto;html=1;endArrow=oval;endFill=0;" edge="1" parent="1">
          <mxGeometry relative="1" as="geometry">
            <mxPoint x="320.2300000000001" y="476.8499999999999" as="sourcePoint" />
            <mxPoint x="337.2300000000001" y="476.85" as="targetPoint" />
          </mxGeometry>
        </mxCell>
        <mxCell id="j8HFBvuaQ3PIoH76wqup-58" value="" style="endArrow=none;html=1;rounded=0;entryX=0.5;entryY=1;entryDx=0;entryDy=0;" edge="1" parent="1">
          <mxGeometry width="50" height="50" relative="1" as="geometry">
            <mxPoint x="424.54" y="587.29" as="sourcePoint" />
            <mxPoint x="424.8400000000002" y="478.29" as="targetPoint" />
          </mxGeometry>
        </mxCell>
        <mxCell id="j8HFBvuaQ3PIoH76wqup-59" value="&lt;span style=&quot;font-size: 8px;&quot;&gt;(1,N)&lt;/span&gt;" style="text;html=1;align=center;verticalAlign=middle;whiteSpace=wrap;rounded=1;strokeColor=none;glass=0;" vertex="1" parent="1">
          <mxGeometry x="297.7300000000001" y="341.43000000000006" width="22.5" height="6.75" as="geometry" />
        </mxCell>
        <mxCell id="j8HFBvuaQ3PIoH76wqup-60" value="App2" style="shape=rhombus;perimeter=rhombusPerimeter;whiteSpace=wrap;html=1;align=center;" vertex="1" parent="1">
          <mxGeometry x="387.61000000000007" y="352.70000000000005" width="69.86" height="42.18" as="geometry" />
        </mxCell>
        <mxCell id="j8HFBvuaQ3PIoH76wqup-61" style="edgeStyle=orthogonalEdgeStyle;rounded=0;orthogonalLoop=1;jettySize=auto;html=1;endArrow=oval;endFill=0;" edge="1" parent="1">
          <mxGeometry relative="1" as="geometry">
            <mxPoint x="317.7300000000001" y="467.41999999999996" as="sourcePoint" />
            <mxPoint x="317.7300000000001" y="443.66999999999996" as="targetPoint" />
            <Array as="points">
              <mxPoint x="317.7300000000001" y="467.41999999999996" />
            </Array>
          </mxGeometry>
        </mxCell>
        <mxCell id="j8HFBvuaQ3PIoH76wqup-62" value="&lt;font style=&quot;font-size: 9px;&quot;&gt;Colore&lt;/font&gt;" style="text;html=1;align=center;verticalAlign=middle;whiteSpace=wrap;rounded=0;" vertex="1" parent="1">
          <mxGeometry x="257.7300000000001" y="494.8499999999999" width="40" height="17" as="geometry" />
        </mxCell>
        <mxCell id="j8HFBvuaQ3PIoH76wqup-63" style="edgeStyle=orthogonalEdgeStyle;rounded=0;orthogonalLoop=1;jettySize=auto;html=1;endArrow=oval;endFill=0;entryX=0.75;entryY=0;entryDx=0;entryDy=0;" edge="1" parent="1">
          <mxGeometry relative="1" as="geometry">
            <mxPoint x="320.2300000000001" y="486.23999999999984" as="targetPoint" />
            <Array as="points">
              <mxPoint x="320.2300000000001" y="476.3099999999999" />
              <mxPoint x="320.2300000000001" y="476.3099999999999" />
            </Array>
            <mxPoint x="320.2300000000001" y="477.3099999999999" as="sourcePoint" />
          </mxGeometry>
        </mxCell>
        <mxCell id="j8HFBvuaQ3PIoH76wqup-64" value="Abito" style="whiteSpace=wrap;html=1;align=center;" vertex="1" parent="1">
          <mxGeometry x="268.7300000000001" y="458.7199999999999" width="57.5" height="20" as="geometry" />
        </mxCell>
        <mxCell id="j8HFBvuaQ3PIoH76wqup-65" style="edgeStyle=orthogonalEdgeStyle;rounded=0;orthogonalLoop=1;jettySize=auto;html=1;endArrow=oval;endFill=0;entryX=0.5;entryY=0;entryDx=0;entryDy=0;" edge="1" parent="1" target="j8HFBvuaQ3PIoH76wqup-73">
          <mxGeometry relative="1" as="geometry">
            <mxPoint x="407.5500000000001" y="487.7399999999999" as="targetPoint" />
            <Array as="points" />
            <mxPoint x="407.5500000000001" y="478.80999999999995" as="sourcePoint" />
          </mxGeometry>
        </mxCell>
        <mxCell id="j8HFBvuaQ3PIoH76wqup-66" value="&lt;font style=&quot;font-size: 9px;&quot;&gt;Materiale&lt;/font&gt;" style="text;html=1;align=center;verticalAlign=middle;whiteSpace=wrap;rounded=0;" vertex="1" parent="1">
          <mxGeometry x="427.5600000000001" y="486.2399999999999" width="35" height="15" as="geometry" />
        </mxCell>
        <mxCell id="j8HFBvuaQ3PIoH76wqup-67" value="" style="curved=1;endArrow=oval;html=1;rounded=0;entryX=0.642;entryY=0.924;entryDx=0;entryDy=0;entryPerimeter=0;endFill=1;" edge="1" parent="1">
          <mxGeometry width="50" height="50" relative="1" as="geometry">
            <mxPoint x="437.61000000000007" y="441.64" as="sourcePoint" />
            <mxPoint x="379.8000000000001" y="453.65999999999997" as="targetPoint" />
            <Array as="points">
              <mxPoint x="432.61000000000007" y="453.64" />
              <mxPoint x="382.61000000000007" y="453.64" />
            </Array>
          </mxGeometry>
        </mxCell>
        <mxCell id="j8HFBvuaQ3PIoH76wqup-68" value="&lt;font style=&quot;font-size: 9px;&quot;&gt;Descrizione&lt;/font&gt;" style="text;html=1;align=center;verticalAlign=middle;whiteSpace=wrap;rounded=0;" vertex="1" parent="1">
          <mxGeometry x="441.61000000000007" y="425.3299999999999" width="40" height="17" as="geometry" />
        </mxCell>
        <mxCell id="j8HFBvuaQ3PIoH76wqup-69" value="&lt;font style=&quot;font-size: 9px;&quot;&gt;Nome&lt;/font&gt;" style="text;html=1;align=center;verticalAlign=middle;whiteSpace=wrap;rounded=0;" vertex="1" parent="1">
          <mxGeometry x="387.61000000000007" y="425.3299999999999" width="40" height="17" as="geometry" />
        </mxCell>
        <mxCell id="j8HFBvuaQ3PIoH76wqup-70" style="edgeStyle=orthogonalEdgeStyle;rounded=0;orthogonalLoop=1;jettySize=auto;html=1;endArrow=oval;endFill=0;" edge="1" parent="1">
          <mxGeometry relative="1" as="geometry">
            <mxPoint x="407.40000000000003" y="467.5799999999999" as="sourcePoint" />
            <mxPoint x="407.40000000000003" y="443.8299999999999" as="targetPoint" />
            <Array as="points">
              <mxPoint x="407.40000000000003" y="467.5799999999999" />
            </Array>
          </mxGeometry>
        </mxCell>
        <mxCell id="j8HFBvuaQ3PIoH76wqup-71" style="edgeStyle=orthogonalEdgeStyle;rounded=0;orthogonalLoop=1;jettySize=auto;html=1;exitX=1.001;exitY=0.609;exitDx=0;exitDy=0;endArrow=oval;endFill=0;exitPerimeter=0;" edge="1" parent="1">
          <mxGeometry relative="1" as="geometry">
            <mxPoint x="399.9300000000001" y="475.6800000000002" as="sourcePoint" />
            <mxPoint x="387.93" y="475.69000000000017" as="targetPoint" />
          </mxGeometry>
        </mxCell>
        <mxCell id="j8HFBvuaQ3PIoH76wqup-72" style="edgeStyle=orthogonalEdgeStyle;rounded=0;orthogonalLoop=1;jettySize=auto;html=1;endArrow=oval;endFill=0;" edge="1" parent="1">
          <mxGeometry relative="1" as="geometry">
            <mxPoint x="447.61000000000007" y="467.67999999999995" as="sourcePoint" />
            <mxPoint x="447.61000000000007" y="443.92999999999995" as="targetPoint" />
            <Array as="points">
              <mxPoint x="447.61000000000007" y="467.67999999999995" />
            </Array>
          </mxGeometry>
        </mxCell>
        <mxCell id="j8HFBvuaQ3PIoH76wqup-73" value="&lt;font style=&quot;font-size: 9px;&quot;&gt;Colore&lt;/font&gt;" style="text;html=1;align=center;verticalAlign=middle;whiteSpace=wrap;rounded=0;" vertex="1" parent="1">
          <mxGeometry x="387.61000000000007" y="495.1099999999999" width="40" height="17" as="geometry" />
        </mxCell>
        <mxCell id="j8HFBvuaQ3PIoH76wqup-74" style="edgeStyle=orthogonalEdgeStyle;rounded=0;orthogonalLoop=1;jettySize=auto;html=1;endArrow=oval;endFill=0;entryX=0.75;entryY=0;entryDx=0;entryDy=0;" edge="1" parent="1">
          <mxGeometry relative="1" as="geometry">
            <mxPoint x="441.61000000000007" y="487.03999999999985" as="targetPoint" />
            <Array as="points">
              <mxPoint x="441.61000000000007" y="477.1099999999999" />
              <mxPoint x="441.61000000000007" y="477.1099999999999" />
            </Array>
            <mxPoint x="441.61000000000007" y="478.1099999999999" as="sourcePoint" />
          </mxGeometry>
        </mxCell>
        <mxCell id="j8HFBvuaQ3PIoH76wqup-75" value="App1" style="shape=rhombus;perimeter=rhombusPerimeter;whiteSpace=wrap;html=1;align=center;" vertex="1" parent="1">
          <mxGeometry x="262.55000000000007" y="352.70000000000005" width="69.86" height="42.18" as="geometry" />
        </mxCell>
        <mxCell id="j8HFBvuaQ3PIoH76wqup-76" value="" style="endArrow=none;html=1;rounded=0;entryX=0.5;entryY=1;entryDx=0;entryDy=0;exitX=0.5;exitY=0;exitDx=0;exitDy=0;" edge="1" parent="1" source="j8HFBvuaQ3PIoH76wqup-64" target="j8HFBvuaQ3PIoH76wqup-75">
          <mxGeometry width="50" height="50" relative="1" as="geometry">
            <mxPoint x="295.7300000000001" y="415.41999999999996" as="sourcePoint" />
            <mxPoint x="345.7300000000001" y="365.41999999999996" as="targetPoint" />
          </mxGeometry>
        </mxCell>
        <mxCell id="j8HFBvuaQ3PIoH76wqup-77" value="" style="endArrow=none;html=1;rounded=0;entryX=0.5;entryY=1;entryDx=0;entryDy=0;exitX=0.388;exitY=0.053;exitDx=0;exitDy=0;exitPerimeter=0;" edge="1" parent="1" source="j8HFBvuaQ3PIoH76wqup-78" target="j8HFBvuaQ3PIoH76wqup-60">
          <mxGeometry width="50" height="50" relative="1" as="geometry">
            <mxPoint x="422.54" y="420.29" as="sourcePoint" />
            <mxPoint x="485.7300000000001" y="385.41999999999996" as="targetPoint" />
          </mxGeometry>
        </mxCell>
        <mxCell id="j8HFBvuaQ3PIoH76wqup-78" value="Accessorio" style="whiteSpace=wrap;html=1;align=center;" vertex="1" parent="1">
          <mxGeometry x="398.61000000000007" y="458.9799999999999" width="61" height="20" as="geometry" />
        </mxCell>
        <mxCell id="j8HFBvuaQ3PIoH76wqup-79" value="" style="endArrow=none;html=1;rounded=0;exitX=0.5;exitY=0;exitDx=0;exitDy=0;" edge="1" parent="1" source="j8HFBvuaQ3PIoH76wqup-75">
          <mxGeometry width="50" height="50" relative="1" as="geometry">
            <mxPoint x="295.7300000000001" y="355.41999999999996" as="sourcePoint" />
            <mxPoint x="297.7300000000001" y="335.41999999999996" as="targetPoint" />
          </mxGeometry>
        </mxCell>
        <mxCell id="j8HFBvuaQ3PIoH76wqup-80" value="" style="endArrow=none;html=1;rounded=0;exitX=0.5;exitY=0;exitDx=0;exitDy=0;" edge="1" parent="1">
          <mxGeometry width="50" height="50" relative="1" as="geometry">
            <mxPoint x="422.4400000000001" y="352.69999999999993" as="sourcePoint" />
            <mxPoint x="422.4400000000001" y="335.69999999999993" as="targetPoint" />
          </mxGeometry>
        </mxCell>
        <mxCell id="j8HFBvuaQ3PIoH76wqup-81" value="" style="endArrow=none;html=1;rounded=0;" edge="1" parent="1">
          <mxGeometry width="50" height="50" relative="1" as="geometry">
            <mxPoint x="297.2300000000001" y="335.41999999999996" as="sourcePoint" />
            <mxPoint x="362.04" y="335.29" as="targetPoint" />
          </mxGeometry>
        </mxCell>
        <mxCell id="j8HFBvuaQ3PIoH76wqup-82" value="" style="endArrow=none;html=1;rounded=0;" edge="1" parent="1">
          <mxGeometry width="50" height="50" relative="1" as="geometry">
            <mxPoint x="382.54" y="335.29" as="sourcePoint" />
            <mxPoint x="422.9300000000001" y="335.41999999999996" as="targetPoint" />
          </mxGeometry>
        </mxCell>
        <mxCell id="j8HFBvuaQ3PIoH76wqup-83" value="&lt;span style=&quot;font-size: 8px;&quot;&gt;(1,N)&lt;/span&gt;" style="text;html=1;align=center;verticalAlign=middle;whiteSpace=wrap;rounded=1;strokeColor=none;glass=0;" vertex="1" parent="1">
          <mxGeometry x="398.61000000000007" y="341.43000000000006" width="22.5" height="6.75" as="geometry" />
        </mxCell>
        <mxCell id="j8HFBvuaQ3PIoH76wqup-84" value="&lt;font style=&quot;font-size: 8px;&quot;&gt;(1,1)&lt;/font&gt;" style="text;html=1;align=center;verticalAlign=middle;whiteSpace=wrap;rounded=1;strokeColor=none;glass=0;" vertex="1" parent="1">
          <mxGeometry x="399.2300000000001" y="394.8799999999999" width="22.5" height="6.75" as="geometry" />
        </mxCell>
        <mxCell id="j8HFBvuaQ3PIoH76wqup-86" value="" style="curved=1;endArrow=oval;html=1;rounded=0;entryX=0.642;entryY=0.924;entryDx=0;entryDy=0;entryPerimeter=0;endFill=1;" edge="1" parent="1">
          <mxGeometry width="50" height="50" relative="1" as="geometry">
            <mxPoint x="308.89000000000004" y="442.07" as="sourcePoint" />
            <mxPoint x="251.08000000000013" y="454.09" as="targetPoint" />
            <Array as="points">
              <mxPoint x="303.89000000000004" y="454.07" />
              <mxPoint x="253.89000000000007" y="454.07" />
            </Array>
          </mxGeometry>
        </mxCell>
      </root>
    </mxGraphModel>
  </diagram>
</mxfile>
